<svg xmlns="http://www.w3.org/2000/svg" width="132.714" height="143.66" viewBox="0 0 132.714 143.66">
  <g id="Group_16" data-name="Group 16" transform="translate(0 210.5)">
    <path id="Path_5" data-name="Path 5" d="M0-166H23.259v23.259H0Z" transform="translate(0 -14.058)" fill="#3b4d7b"/>
    <path id="Path_6" data-name="Path 6" d="M42.5-166H146.14v23.259H42.5Z" transform="translate(-13.426 -14.058)" fill="#3b4d7b"/>
    <path id="Path_7" data-name="Path 7" d="M0-122H23.259v23.259H0Z" transform="translate(0 -27.958)" fill="#3b4d7b"/>
    <path id="Path_8" data-name="Path 8" d="M42.5-122H146.14v23.259H42.5Z" transform="translate(-13.426 -27.958)" fill="#3b4d7b"/>
    <path id="Path_9" data-name="Path 9" d="M0-78H23.259v23.259H0Z" transform="translate(0 -41.858)" fill="#3b4d7b"/>
    <path id="Path_10" data-name="Path 10" d="M42.5-78H146.14v23.259H42.5Z" transform="translate(-13.426 -41.858)" fill="#3b4d7b"/>
    <path id="Path_11" data-name="Path 11" d="M89.5-187.241,108.655-210.5l19.155,23.259Z" transform="translate(-28.274)" fill="#3b4d7b" fill-rule="evenodd"/>
    <path id="Path_12" data-name="Path 12" d="M127.809-34.5,108.655-11.241,89.5-34.5Z" transform="translate(-28.274 -55.599)" fill="#3b4d7b" fill-rule="evenodd"/>
  </g>
</svg>
