<?xml version="1.0" encoding="utf-8"?>
<!-- Generator: Adobe Illustrator 23.0.0, SVG Export Plug-In . SVG Version: 6.00 Build 0)  -->
<svg version="1.1" id="Layer_1" xmlns="http://www.w3.org/2000/svg" xmlns:xlink="http://www.w3.org/1999/xlink" x="0px" y="0px"
	 viewBox="0 0 266.7 205.2" style="enable-background:new 0 0 266.7 205.2;" xml:space="preserve">
<style type="text/css">
	.st0{fill:#9D9D9C;}
	.st1{fill:#764C99;}
	.st2{clip-path:url(#SVGID_2_);}
	.st3{fill:url(#SVGID_3_);}
	.st4{clip-path:url(#SVGID_5_);}
	.st5{fill:url(#SVGID_6_);}
	.st6{clip-path:url(#SVGID_8_);}
	.st7{fill:url(#SVGID_9_);}
	.st8{clip-path:url(#SVGID_11_);}
	.st9{fill:url(#SVGID_12_);}
	.st10{clip-path:url(#SVGID_14_);}
	.st11{fill:url(#SVGID_15_);}
	.st12{clip-path:url(#SVGID_17_);}
	.st13{fill:url(#SVGID_18_);}
	.st14{clip-path:url(#SVGID_20_);}
	.st15{fill:url(#SVGID_21_);}
	.st16{clip-path:url(#SVGID_23_);}
	.st17{fill:url(#SVGID_24_);}
	.st18{clip-path:url(#SVGID_26_);}
	.st19{fill:url(#SVGID_27_);}
</style>
<title>fitness-storm-svg</title>
<g>
	<g id="Layer_1-2">
		<path class="st0" d="M121.5,116c0.1-4.2,1.7-8.3,4.7-11.3c-10.3-3.2-23.8-6.5-23.8-6.5s6.4,13.5,11.7,17.7
			c3.4,2.7,6.9,5.3,10.6,7.6C124.2,122,121.5,117.6,121.5,116"/>
		<path class="st0" d="M152.6,78.3c-30,0-56.5-8.3-72.4-21l-1.4,12.3l10.5,8.6c0,0,32.7,13.9,47.5,13.7s32.7-11.7,32.7-11.7l2.2-3.2
			C165.3,77.9,158.9,78.2,152.6,78.3"/>
		<polygon class="st1" points="98,136.2 97.2,138.1 89.6,138.1 86.3,144.9 86.8,145.9 85.8,145.9 82.1,142.1 86.8,132.5 86.2,131.5 
			100.3,131.4 98.6,135 93.1,135 93.9,133.3 91.9,133.3 90.4,136.2 		"/>
		<polygon class="st1" points="95.8,144.8 101.8,132.4 101.3,131.4 107.8,131.4 101.3,144.8 		"/>
		<polygon class="st1" points="124.3,131.3 123.4,133.1 118.4,133.1 112.8,144.8 113.3,145.8 112.3,145.8 108.6,142 112.9,133.2 
			107.9,133.2 108.7,131.4 		"/>
		<polygon class="st1" points="128.6,137.7 125.2,144.7 125.7,145.7 124.7,145.8 121.1,142 125.7,132.4 125.2,131.3 131.6,131.3 
			131.4,138.5 134.9,131.3 140.4,131.3 133.9,144.7 128.4,144.7 		"/>
		<polygon class="st1" points="155.3,131.2 153.4,135.2 147.9,135.2 148.9,133 146.8,133 145.4,136 153,136 152.1,137.8 
			144.5,137.9 142.1,142.8 144.3,142.8 146.2,138.8 151.7,138.7 148.8,144.6 135.8,144.7 141.7,132.2 141.2,131.2 		"/>
		<polygon class="st1" points="156.2,144.7 156.7,145.7 155.7,145.7 152,141.9 153.2,139.5 158.7,139.5 157.1,142.8 159.2,142.7 
			161.1,138.9 154.6,136.7 156.6,132.2 156.1,131.2 169.2,131.2 169.7,132.2 168.2,135.4 162.7,135.5 163.8,133 161.7,133 
			160.3,136.1 165.9,138.1 166.4,139.1 163.8,144.6 156.2,144.6 		"/>
		<polygon class="st1" points="171.1,144.6 171.6,145.6 170.6,145.6 166.9,141.9 168.1,139.5 173.6,139.5 172,142.7 174.1,142.7 
			175.9,138.9 169.4,136.6 171.5,132.2 171,131.1 184.1,131.1 184.6,132.2 183.1,135.4 177.6,135.4 178.7,132.9 176.6,133 
			175.2,136 180.8,138.1 181.3,139.1 178.7,144.5 171.1,144.5 		"/>
		<g>
			<defs>
				<polygon id="SVGID_1_" points="235.3,151.9 219.1,179.6 221.8,151.8 199.8,151.8 200.8,154.1 187.1,188.3 198.4,201.4 
					201.4,201.3 199.9,197.7 211.5,168.9 208.7,197.5 218.5,197.3 237.3,164.8 224.2,197.2 241,196.9 256.9,157.4 266.7,151.8 				
					"/>
			</defs>
			<clipPath id="SVGID_2_">
				<use xlink:href="#SVGID_1_"  style="overflow:visible;"/>
			</clipPath>
			<g class="st2">
				
					<linearGradient id="SVGID_3_" gradientUnits="userSpaceOnUse" x1="-340.3054" y1="-154.9105" x2="-339.3054" y2="-154.9105" gradientTransform="matrix(0 -66.66 66.66 0 10553.2227 -22477.7109)">
					<stop  offset="0" style="stop-color:#53BFCC"/>
					<stop  offset="0.13" style="stop-color:#53BFCC"/>
					<stop  offset="1" style="stop-color:#764C99"/>
				</linearGradient>
				<rect x="187.1" y="151.8" class="st3" width="79.7" height="49.5"/>
			</g>
		</g>
		<g>
			<defs>
				<polygon id="SVGID_4_" points="4.7,151.8 13.8,157.7 7.6,173.5 27.5,181.1 21.9,194.6 15.6,194.8 20.3,183.3 3.5,183.6 0,192.1 
					11.4,205.2 14.4,205.2 12.9,201.6 13,201.3 36,200.8 43.7,181.6 42.2,178 25.2,171.1 29.4,160.2 35.8,160.1 32.4,168.8 
					49.1,168.5 53.6,157 51.9,151.8 				"/>
			</defs>
			<clipPath id="SVGID_5_">
				<use xlink:href="#SVGID_4_"  style="overflow:visible;"/>
			</clipPath>
			<g class="st4">
				
					<linearGradient id="SVGID_6_" gradientUnits="userSpaceOnUse" x1="-340.3054" y1="-154.9105" x2="-339.3054" y2="-154.9105" gradientTransform="matrix(0 -66.66 66.66 0 10353.1523 -22477.7109)">
					<stop  offset="0" style="stop-color:#53BFCC"/>
					<stop  offset="0.13" style="stop-color:#53BFCC"/>
					<stop  offset="1" style="stop-color:#764C99"/>
				</linearGradient>
				<rect y="151.8" class="st5" width="53.6" height="53.4"/>
			</g>
		</g>
		<g>
			<defs>
				<polygon id="SVGID_7_" points="56.2,195.7 60,200 59.1,202.2 70.3,202.2 85.2,165.2 100.6,164.8 105.3,151.8 58.5,151.8 
					53.2,165.8 68.4,165.5 				"/>
			</defs>
			<clipPath id="SVGID_8_">
				<use xlink:href="#SVGID_7_"  style="overflow:visible;"/>
			</clipPath>
			<g class="st6">
				
					<linearGradient id="SVGID_9_" gradientUnits="userSpaceOnUse" x1="-340.3054" y1="-154.9105" x2="-339.3054" y2="-154.9105" gradientTransform="matrix(0 -66.66 66.66 0 10405.582 -22477.7109)">
					<stop  offset="0" style="stop-color:#53BFCC"/>
					<stop  offset="0.13" style="stop-color:#53BFCC"/>
					<stop  offset="1" style="stop-color:#764C99"/>
				</linearGradient>
				<rect x="53.2" y="151.8" class="st7" width="52.2" height="50.3"/>
			</g>
		</g>
		<g>
			<defs>
				<path id="SVGID_10_" d="M148.5,151.8l-40.2,0.3l1.6,3.7l-15.5,38.3l3.4,5.6l30.9-0.6l5.3-4.6l15.9-39.5L148.5,151.8z M118,192.8
					l-6.4,0.1l13.9-34.7l6.4-0.1L118,192.8z"/>
			</defs>
			<clipPath id="SVGID_11_">
				<use xlink:href="#SVGID_10_"  style="overflow:visible;"/>
			</clipPath>
			<g class="st8">
				
					<linearGradient id="SVGID_12_" gradientUnits="userSpaceOnUse" x1="-340.3054" y1="-154.9106" x2="-339.3054" y2="-154.9106" gradientTransform="matrix(0 -66.66 66.66 0 10448.4531 -22477.7109)">
					<stop  offset="0" style="stop-color:#53BFCC"/>
					<stop  offset="0.13" style="stop-color:#53BFCC"/>
					<stop  offset="1" style="stop-color:#764C99"/>
				</linearGradient>
				<rect x="94.4" y="151.8" class="st9" width="55.4" height="47.9"/>
			</g>
		</g>
		<g>
			<defs>
				<path id="SVGID_13_" d="M186.1,171.4l-3-0.3l7.6-4.7l4.6-12.2l-1.3-2.3h-40l1.4,3.2L137.7,199l16.8-0.4l7.3-18.2l7.6-3.2
					l-8.6,21.3l16.6-0.3l9.7-24L186.1,171.4z M172.8,168.9l-7.6,3.2l5.9-14.6l6.3-0.1L172.8,168.9z"/>
			</defs>
			<clipPath id="SVGID_14_">
				<use xlink:href="#SVGID_13_"  style="overflow:visible;"/>
			</clipPath>
			<g class="st10">
				
					<linearGradient id="SVGID_15_" gradientUnits="userSpaceOnUse" x1="-340.3054" y1="-154.9104" x2="-339.3054" y2="-154.9104" gradientTransform="matrix(0 -66.66 66.66 0 10492.8203 -22477.7109)">
					<stop  offset="0" style="stop-color:#53BFCC"/>
					<stop  offset="0.13" style="stop-color:#53BFCC"/>
					<stop  offset="1" style="stop-color:#764C99"/>
				</linearGradient>
				<rect x="137.7" y="151.8" class="st11" width="57.5" height="47.1"/>
			</g>
		</g>
		<g>
			<defs>
				<path id="SVGID_16_" d="M67.3,50.9c0,12.6,9.5,23.3,22.8,27.4c-4.9-5.7-7.7-12.4-7.7-19.5c0-15.6,13.6-29,33-35
					c-4.1-1.5-8.5-2.3-12.8-2.2C84.6,21.6,67.1,33.6,67.3,50.9"/>
			</defs>
			<clipPath id="SVGID_17_">
				<use xlink:href="#SVGID_16_"  style="overflow:visible;"/>
			</clipPath>
			<g class="st12">
				
					<linearGradient id="SVGID_18_" gradientUnits="userSpaceOnUse" x1="-336.4783" y1="-154.8541" x2="-335.4783" y2="-154.8541" gradientTransform="matrix(96.8154 -73.3272 73.3272 96.8154 43988.8164 -9605.3271)">
					<stop  offset="0" style="stop-color:#53BFCC"/>
					<stop  offset="0.13" style="stop-color:#53BFCC"/>
					<stop  offset="1" style="stop-color:#764C99"/>
				</linearGradient>
				<polygon class="st13" points="39.8,42.2 97.7,-1.6 142.6,57.6 84.7,101.5 				"/>
			</g>
		</g>
		<g>
			<defs>
				<path id="SVGID_19_" d="M114.1,115.9c0,0-26.9-32,28.5-48.9s52.4,0.4,52.4,0.4c12.7-25.6-3.1-35.9-26.1-35.9
					C122.6,31.4,47,73.1,114.1,115.9"/>
			</defs>
			<clipPath id="SVGID_20_">
				<use xlink:href="#SVGID_19_"  style="overflow:visible;"/>
			</clipPath>
			<g class="st14">
				
					<linearGradient id="SVGID_21_" gradientUnits="userSpaceOnUse" x1="-336.4783" y1="-154.885" x2="-335.4783" y2="-154.885" gradientTransform="matrix(96.8154 -73.3272 73.3272 96.8154 44015.6875 -9569.8945)">
					<stop  offset="0" style="stop-color:#53BFCC"/>
					<stop  offset="0.13" style="stop-color:#53BFCC"/>
					<stop  offset="1" style="stop-color:#764C99"/>
				</linearGradient>
				<polygon class="st15" points="6.3,62.2 149.1,-45.9 248.3,85.1 105.5,193.2 				"/>
			</g>
		</g>
		<g>
			<defs>
				<path id="SVGID_22_" d="M124.7,123.5c3.2-28.6,43-18.1,47-46.4C164.5,86.1,94.3,88.7,124.7,123.5"/>
			</defs>
			<clipPath id="SVGID_23_">
				<use xlink:href="#SVGID_22_"  style="overflow:visible;"/>
			</clipPath>
			<g class="st16">
				
					<linearGradient id="SVGID_24_" gradientUnits="userSpaceOnUse" x1="-336.4783" y1="-154.8823" x2="-335.4783" y2="-154.8823" gradientTransform="matrix(96.8154 -73.3272 73.3272 96.8154 44030.3789 -9550.5078)">
					<stop  offset="0" style="stop-color:#53BFCC"/>
					<stop  offset="0.13" style="stop-color:#53BFCC"/>
					<stop  offset="1" style="stop-color:#764C99"/>
				</linearGradient>
				<polygon class="st17" points="71.9,94 143.4,39.8 194,106.6 122.5,160.7 				"/>
			</g>
		</g>
		<g>
			<defs>
				<path id="SVGID_25_" d="M119.5,15.7c0,8.7,7,15.7,15.7,15.7s15.7-7,15.7-15.7S143.9,0,135.2,0l0,0C126.5,0,119.5,7,119.5,15.7
					C119.5,15.7,119.5,15.7,119.5,15.7"/>
			</defs>
			<clipPath id="SVGID_26_">
				<use xlink:href="#SVGID_25_"  style="overflow:visible;"/>
			</clipPath>
			<g class="st18">
				
					<linearGradient id="SVGID_27_" gradientUnits="userSpaceOnUse" x1="-336.4783" y1="-154.8627" x2="-335.4783" y2="-154.8627" gradientTransform="matrix(96.8154 -73.3272 73.3272 96.8154 43989.0469 -9605.083)">
					<stop  offset="0" style="stop-color:#53BFCC"/>
					<stop  offset="0.13" style="stop-color:#53BFCC"/>
					<stop  offset="1" style="stop-color:#764C99"/>
				</linearGradient>
				<polygon class="st19" points="104.4,11.5 139.5,-15.1 166,20 130.9,46.5 				"/>
			</g>
		</g>
	</g>
</g>
</svg>
